<?xml version="1.0" encoding="iso-8859-1"?>
<!-- Generator: Adobe Illustrator 18.0.0, SVG Export Plug-In . SVG Version: 6.00 Build 0)  -->
<!DOCTYPE svg PUBLIC "-//W3C//DTD SVG 1.1//EN" "http://www.w3.org/Graphics/SVG/1.1/DTD/svg11.dtd">
<svg xmlns="http://www.w3.org/2000/svg" xmlns:xlink="http://www.w3.org/1999/xlink" version="1.1" id="Capa_1" x="0px" y="0px" viewBox="0 0 371.553 371.553" style="enable-background:new 0 0 371.553 371.553;" xml:space="preserve" width="512px" height="512px">
<g>
	<polygon points="242.853,230.834 242.853,120.834 226.105,120.834 201.566,137.684 201.566,161.564 220.333,148.703    220.333,230.834  " fill="#2e8dd1"/>
	<path d="M191.72,153.293v-2.496c0-14.148-9.154-29.963-35.51-29.963c-24.137,0-35.512,11.791-35.512,35.094v2.775h22.195   c0-13.732,4.994-18.449,12.621-18.449h1.389c7.35,0,12.621,4.855,12.621,14.703v1.389c0,5.965-2.355,9.432-7.213,14.564   l-41.613,45.914v14.01h71.021V211.16l-36.926-0.068l24.857-29.986C187.699,172.436,191.72,166.055,191.72,153.293z" fill="#2e8dd1"/>
	<path d="M115.743,119.484l42.488-73.596C163.892,36.088,174.437,30,185.755,30c11.316,0,21.863,6.088,27.521,15.889l23.705,41.061   l-17.967,10.045l52.174,21.596l8.926-55.756l-16.944,9.474l-23.913-41.419C228.255,11.836,207.755,0,185.755,0   c-22.002,0-42.502,11.836-53.504,30.889l-42.488,73.596l22.324-7.598L115.743,119.484z" fill="#2e8dd1"/>
	<path d="M336.659,199.598l-45.662-79.09l-3.189,22.826l-22.791-7.826l45.772,79.279l0.24,0.402   c3.098,4.998,4.734,10.771,4.734,16.699c0,17.375-14.016,31.539-31.336,31.777l-0.197-0.014l-0.502,0.018h-61.801v-20l-44.311,35   l44.311,35v-20h62.057c0.02,0,0.043,0,0.065,0l0.172-0.002c33.957-0.127,61.543-27.793,61.543-61.779   C345.763,220.457,342.616,209.297,336.659,199.598z" fill="#2e8dd1"/>
	<path d="M151.763,278.084l15-14.414H87.542c-11.318,0-21.863-6.09-27.522-15.891c-5.658-9.801-5.658-21.98-0.002-31.781   l27.937-48.385l17.124,10.113l-7.604-55.953l-52.67,20.355l17.317,10.228L34.038,201c-10.998,19.053-10.998,42.725,0,61.779   c11.002,19.053,31.504,30.891,53.504,30.891h79.221L151.763,278.084z" fill="#2e8dd1"/>
	<path d="M137.298,317.078h-20.481v54.475h12.959v-19.555h7.521c10.16,0,21.68-2.234,21.68-16.762v-1.396   C158.978,319.383,147.458,317.078,137.298,317.078z M145.859,334.889c0,6.145-4.48,7.332-8.002,7.332h-8.08v-15.365h8.08   c3.521,0,8.002,1.188,8.002,7.334V334.889z" fill="#2e8dd1"/>
	<path d="M175.937,316.94l-15.6,54.613h13.92l2.961-11.732h15.279l3.041,11.732h13.84l-15.602-54.613H175.937z M179.697,350.043   l5.121-20.045l5.119,20.045H179.697z" fill="#2e8dd1"/>
	<path d="M235.456,317.078h-20.48v54.475h12.961v-19.555h7.52c10.16,0,21.682-2.234,21.682-16.762v-1.396   C257.138,319.383,245.616,317.078,235.456,317.078z M244.017,334.889c0,6.145-4.48,7.332-8,7.332h-8.08v-15.365h8.08   c3.52,0,8,1.188,8,7.334V334.889z" fill="#2e8dd1"/>
</g>
<g>
</g>
<g>
</g>
<g>
</g>
<g>
</g>
<g>
</g>
<g>
</g>
<g>
</g>
<g>
</g>
<g>
</g>
<g>
</g>
<g>
</g>
<g>
</g>
<g>
</g>
<g>
</g>
<g>
</g>
</svg>
