<?xml version="1.0" encoding="iso-8859-1"?>
<!-- Generator: Adobe Illustrator 18.0.0, SVG Export Plug-In . SVG Version: 6.00 Build 0)  -->
<!DOCTYPE svg PUBLIC "-//W3C//DTD SVG 1.1//EN" "http://www.w3.org/Graphics/SVG/1.1/DTD/svg11.dtd">
<svg xmlns="http://www.w3.org/2000/svg" xmlns:xlink="http://www.w3.org/1999/xlink" version="1.1" id="Capa_1" x="0px" y="0px" viewBox="0 0 371.037 371.037" style="enable-background:new 0 0 371.037 371.037;" xml:space="preserve" width="512px" height="512px">
<g>
	<path d="M336.402,199.599l-45.662-79.091l-3.189,22.826l-22.791-7.826l45.771,79.28l0.24,0.401   c3.098,4.998,4.734,10.773,4.734,16.699c0,17.375-14.016,31.539-31.336,31.777l-0.197-0.013l-0.502,0.017h-61.801v-20l-44.311,35   l44.311,35v-20h62.057c0.02,0,0.043,0,0.064,0l0.172-0.001c33.957-0.128,61.543-27.794,61.543-61.78   C345.505,220.457,342.359,209.297,336.402,199.599z" fill="#2e8dd1"/>
	<path d="M151.505,278.084l15-14.414H87.284c-11.318,0-21.863-6.09-27.521-15.891c-5.658-9.801-5.658-21.979-0.002-31.781   l27.936-48.385l17.124,10.113l-7.604-55.953l-52.67,20.355l17.317,10.228L33.781,201c-10.998,19.053-10.998,42.726,0,61.779   c11.002,19.054,31.504,30.891,53.504,30.891h79.221L151.505,278.084z" fill="#2e8dd1"/>
	<path d="M115.486,119.484l42.488-73.595c5.66-9.802,16.205-15.89,27.523-15.89c11.316,0,21.863,6.088,27.521,15.89l23.705,41.061   l-17.967,10.045l52.174,21.596l8.926-55.756l-16.943,9.473l-23.914-41.419C227.997,11.836,207.497,0,185.497,0   c-22.002,0-42.502,11.836-53.504,30.89l-42.488,73.595l22.324-7.597L115.486,119.484z" fill="#2e8dd1"/>
	<path d="M186.152,200.729h-1.365c-6.293,0-11.389-2.99-12.744-11.764h-22.094c1.133,19.797,12.85,30.869,35.521,30.869   c25.521,0,35.619-16.787,35.619-30.297v-2.594c0-11.736-5.732-19.106-13.102-23.338c6.961-4.094,12.42-11.463,12.42-22.791v-2.594   c0-12.828-9.008-28.387-34.938-28.387c-23.037,0-34.256,10.918-34.908,32.503h22.037c1.039-9.864,5.523-13.396,12.188-13.396h1.365   c7.232,0,12.418,4.776,12.418,11.873v1.229c0,8.189-4.639,12.146-12.555,12.146h-10.113v19.105h10.523   c7.914,0,12.828,4.096,12.828,12.421v1.501C199.253,196.634,192.976,200.729,186.152,200.729z" fill="#2e8dd1"/>
	<path d="M134.48,315.655h-20.48v54.475h12.961v-19.556h7.52c10.16,0,21.682-2.234,21.682-16.761v-1.397   C156.161,317.96,144.64,315.655,134.48,315.655z M143.04,333.465c0,6.145-4.48,7.332-8,7.332h-8.08v-15.364h8.08   c3.52,0,8,1.188,8,7.333V333.465z" fill="#2e8dd1"/>
	<polygon points="183.839,357.209 173.199,315.655 159.359,315.655 174.958,370.27 192.8,370.27 208.4,315.655 194.48,315.655  " fill="#2e8dd1"/>
	<path d="M236.079,314.747c-16.24,0-23.441,7.892-23.441,26.749v2.793c0,18.857,7.201,26.748,23.441,26.748   c14.799,0,22.32-5.447,22.32-18.855v-0.629h-12.961c0,5.866-2.32,9.707-8.641,9.707h-0.719c-8.32,0-10.32-6.076-10.32-16.971   v-2.793c0-10.896,2-16.971,10.32-16.971h0.719c6.801,0,8.641,4.33,8.641,11.803H258.4v-2.515   C258.4,320.195,250.878,314.747,236.079,314.747z" fill="#2e8dd1"/>
</g>
<g>
</g>
<g>
</g>
<g>
</g>
<g>
</g>
<g>
</g>
<g>
</g>
<g>
</g>
<g>
</g>
<g>
</g>
<g>
</g>
<g>
</g>
<g>
</g>
<g>
</g>
<g>
</g>
<g>
</g>
</svg>
